STARTFONT 2.1
COMMENT $XConsortium: luBIS24.bdf,v 1.8 94/04/02 15:59:24 gildea Exp $
COMMENT  (c) Copyright Bigelow & Holmes 1986, 1985. Lucida is a registered
COMMENT  trademark of Bigelow & Holmes. See LEGAL NOTICE file for terms 
COMMENT  of the license. 
COMMENT  
COMMENT  Translation to ISO8859-2 by Cub Soft;  Petr.Kolar@vslib.cz
COMMENT  
FONT -B&H-Lucida-Bold-I-Normal-Sans-24-240-75-75-P-151-ISO8859-2
SIZE 24 72 72
FONTBOUNDINGBOX 82 27 -17 -5
STARTPROPERTIES 20
COMMENT Begin LogicalFontDescription
FONTNAME_REGISTRY ""
FOUNDRY "B&H"
FAMILY_NAME "Lucida"
WEIGHT_NAME "Bold"
SLANT "I"
SETWIDTH_NAME "Normal"
ADD_STYLE_NAME "Sans"
PIXEL_SIZE 24
POINT_SIZE 240
RESOLUTION_X 75
RESOLUTION_Y 75
SPACING "P"
AVERAGE_WIDTH 151
CHARSET_REGISTRY "ISO8859"
CHARSET_ENCODING "2"
COMMENT END LogicalFontDescription
FONT_ASCENT 22
FONT_DESCENT 5
DEFAULT_CHAR 0
COPYRIGHT "Copyright Bigelow & Holmes 1986, 1985., Copyright 1996 Cub Soft"
FACE_NAME "Lucida Sans Bold Italic"
ENDPROPERTIES
CHARS 191
STARTCHAR space
ENCODING 32
SWIDTH 343 0
DWIDTH 8 0
BBX 1 1 0 0
BITMAP
00
ENDCHAR
STARTCHAR exclam
ENCODING 33
SWIDTH 343 0
DWIDTH 8 0
BBX 8 17 2 0
BITMAP
1f
1f
1f
1e
1e
1e
3c
3c
3c
38
38
38
00
00
78
f8
f8
ENDCHAR
STARTCHAR quotedbl
ENCODING 34
SWIDTH 530 0
DWIDTH 13 0
BBX 11 8 4 10
BITMAP
fbe0
f1e0
f1e0
f1e0
71c0
71c0
71c0
71c0
ENDCHAR
STARTCHAR numbersign
ENCODING 35
SWIDTH 687 0
DWIDTH 16 0
BBX 15 17 2 0
BITMAP
00ce
01cc
019c
0318
3ffe
7ffe
0670
0c60
0c60
1cc0
fffc
fff8
3180
3300
6300
6700
c600
ENDCHAR
STARTCHAR dollar
ENCODING 36
SWIDTH 687 0
DWIDTH 16 0
BBX 14 23 3 -3
BITMAP
00e0
00e0
00e0
07fc
0ffc
1ffc
1ec8
1ec0
1e80
1f80
0fc0
07e0
03f0
03f0
02f8
0670
46f0
fff0
ffe0
ff80
0e00
0e00
0e00
ENDCHAR
STARTCHAR percent
ENCODING 37
SWIDTH 908 0
DWIDTH 22 0
BBX 20 17 3 0
BITMAP
1f00f0
7f81c0
7f8380
f38780
f38f00
ff9e00
ff3c00
3c7800
00f3c0
01efe0
03dff0
079ef0
0f1cf0
1e1cf0
1c1fe0
381fc0
f00f80
ENDCHAR
STARTCHAR ampersand
ENCODING 38
SWIDTH 816 0
DWIDTH 20 0
BBX 18 17 2 0
BITMAP
00f800
03fe00
07fe00
078e00
079e00
07fc00
07f000
0fe1c0
1de3c0
79f380
70f380
f0ff00
f87e00
fc7c00
fffc00
7ffe00
1f9f00
ENDCHAR
STARTCHAR apostrophe
ENCODING 39
SWIDTH 265 0
DWIDTH 6 0
BBX 6 8 3 10
BITMAP
7c
7c
7c
78
78
38
f0
e0
ENDCHAR
STARTCHAR parenleft
ENCODING 40
SWIDTH 386 0
DWIDTH 9 0
BBX 10 23 2 -5
BITMAP
00c0
0180
0380
0700
0f00
1e00
3c00
3c00
7c00
7800
f800
f800
f800
f800
f000
f000
f000
7800
7800
7800
3c00
1800
0800
ENDCHAR
STARTCHAR parenright
ENCODING 41
SWIDTH 386 0
DWIDTH 9 0
BBX 10 23 1 -5
BITMAP
0800
0e00
0e00
0f00
0780
0780
0780
0780
0780
07c0
0780
0780
0f80
0f80
0f00
0f00
1e00
1e00
3c00
7800
f000
e000
8000
ENDCHAR
STARTCHAR asterisk
ENCODING 42
SWIDTH 464 0
DWIDTH 11 0
BBX 9 9 4 8
BITMAP
0e00
0c00
6d80
7380
e380
1400
f600
6700
2400
ENDCHAR
STARTCHAR plus
ENCODING 43
SWIDTH 687 0
DWIDTH 16 0
BBX 14 14 3 0
BITMAP
01c0
0180
0380
0380
0380
fffc
fffc
fffc
0700
0700
0700
0600
0600
0e00
ENDCHAR
STARTCHAR comma
ENCODING 44
SWIDTH 343 0
DWIDTH 8 0
BBX 6 9 1 -4
BITMAP
7c
7c
7c
78
78
38
38
f0
e0
ENDCHAR
STARTCHAR minus
ENCODING 45
SWIDTH 687 0
DWIDTH 16 0
BBX 14 3 3 6
BITMAP
fffc
fffc
fffc
ENDCHAR
STARTCHAR period
ENCODING 46
SWIDTH 343 0
DWIDTH 8 0
BBX 6 5 2 0
BITMAP
7c
7c
fc
f8
f8
ENDCHAR
STARTCHAR slash
ENCODING 47
SWIDTH 596 0
DWIDTH 14 0
BBX 18 22 0 -4
BITMAP
0003c0
000780
000700
000f00
001e00
001c00
003c00
007800
007000
00f000
00e000
01c000
03c000
038000
070000
0f0000
0e0000
1e0000
3c0000
380000
780000
f00000
ENDCHAR
STARTCHAR zero
ENCODING 48
SWIDTH 687 0
DWIDTH 16 0
BBX 15 17 2 0
BITMAP
01f0
07fc
0ffc
1f3e
3e1e
7c1e
7c1e
783e
f83e
f83e
f83e
f87c
f878
f8f8
7ff0
3fe0
1f80
ENDCHAR
STARTCHAR one
ENCODING 49
SWIDTH 687 0
DWIDTH 16 0
BBX 8 17 6 0
BITMAP
7f
7f
fe
1e
1e
3e
3e
3c
3c
3c
7c
7c
78
78
78
f8
f8
ENDCHAR
STARTCHAR two
ENCODING 50
SWIDTH 687 0
DWIDTH 16 0
BBX 15 17 2 0
BITMAP
07f0
0ffc
1ffe
107e
003e
003e
007c
00fc
01f0
07e0
0f80
1f00
3c00
7800
7ff8
fff8
fff8
ENDCHAR
STARTCHAR three
ENCODING 51
SWIDTH 687 0
DWIDTH 16 0
BBX 14 17 3 0
BITMAP
0ff0
1ff8
1ffc
107c
007c
0078
00f0
1fc0
1fe0
1ff0
01f8
00f8
00f8
c1f0
fff0
ffe0
7f80
ENDCHAR
STARTCHAR four
ENCODING 52
SWIDTH 687 0
DWIDTH 16 0
BBX 15 17 1 0
BITMAP
003e
007e
00fc
01fc
03fc
07bc
0f7c
1e78
3c78
7878
7ffe
fffe
fffc
00f0
00f0
00f0
01e0
ENDCHAR
STARTCHAR five
ENCODING 53
SWIDTH 687 0
DWIDTH 16 0
BBX 15 17 3 0
BITMAP
0ffe
1ffe
1ffc
1c00
1800
1800
3f00
3fe0
3ff0
03f8
00f8
00f8
00f8
c1f8
fff0
ffe0
ff80
ENDCHAR
STARTCHAR six
ENCODING 54
SWIDTH 687 0
DWIDTH 16 0
BBX 15 17 3 0
BITMAP
01fe
07fe
1ffe
1f06
3e00
7c00
7fe0
fff8
fff8
fc7c
f87c
f87c
f878
78f8
7ff0
3fe0
0f80
ENDCHAR
STARTCHAR seven
ENCODING 55
SWIDTH 687 0
DWIDTH 16 0
BBX 14 17 5 0
BITMAP
7ffc
7ffc
fff8
0078
00f0
01e0
03c0
07c0
0f80
0f00
1e00
3e00
3c00
7c00
7800
f800
f800
ENDCHAR
STARTCHAR eight
ENCODING 56
SWIDTH 687 0
DWIDTH 16 0
BBX 15 17 2 0
BITMAP
01f8
07fc
0ffe
1e1e
1e1e
1e1c
1ff8
0ff0
1ff8
3dfc
787c
f03c
f03c
f87c
fff8
7ff0
1fc0
ENDCHAR
STARTCHAR nine
ENCODING 57
SWIDTH 687 0
DWIDTH 16 0
BBX 15 17 2 0
BITMAP
03e0
0ff8
1ffc
3e3c
3c3e
7c3e
7c3e
7c7e
3ffe
3ffe
0ffc
007c
00f8
c1f0
fff0
ffc0
ff00
ENDCHAR
STARTCHAR colon
ENCODING 58
SWIDTH 343 0
DWIDTH 8 0
BBX 7 13 2 0
BITMAP
3e
3e
3e
3c
3c
00
00
00
78
78
f8
f8
f8
ENDCHAR
STARTCHAR semicolon
ENCODING 59
SWIDTH 343 0
DWIDTH 8 0
BBX 8 17 1 -4
BITMAP
1f
1f
1f
1e
3e
00
00
00
3c
7c
7c
7c
7c
38
38
f0
e0
ENDCHAR
STARTCHAR less
ENCODING 60
SWIDTH 687 0
DWIDTH 16 0
BBX 15 14 3 0
BITMAP
0002
000e
003e
01fc
07f0
1f80
fe00
7c00
1f00
0fc0
03e0
00f8
0038
0010
ENDCHAR
STARTCHAR equal
ENCODING 61
SWIDTH 687 0
DWIDTH 16 0
BBX 15 9 2 2
BITMAP
3ffe
7ffe
7ffe
0000
0000
0000
fffc
fffc
fff8
ENDCHAR
STARTCHAR greater
ENCODING 62
SWIDTH 687 0
DWIDTH 16 0
BBX 15 14 1 0
BITMAP
1000
3800
3e00
0f80
07e0
01f0
007c
00fe
03f0
1fc0
7f00
f800
e000
8000
ENDCHAR
STARTCHAR question
ENCODING 63
SWIDTH 539 0
DWIDTH 13 0
BBX 12 17 3 0
BITMAP
3fc0
7fe0
fff0
c3f0
01f0
01e0
03c0
0780
0f00
1e00
3c00
7c00
0000
0000
7800
f800
f800
ENDCHAR
STARTCHAR at
ENCODING 64
SWIDTH 833 0
DWIDTH 20 0
BBX 19 17 2 0
BITMAP
00fc00
03ff00
0f0380
1c00c0
38fce0
73fc60
671c60
c61860
cc3860
cc58c0
cfd9c0
cfbf80
c63e00
600000
382000
1ff000
07c000
ENDCHAR
STARTCHAR A
ENCODING 65
SWIDTH 771 0
DWIDTH 18 0
BBX 17 17 1 0
BITMAP
007c00
00fc00
00fc00
01fc00
01fe00
03fe00
039e00
079e00
071e00
0e1f00
0fff00
1fff00
3fff00
380f00
780f80
700f80
f00780
ENDCHAR
STARTCHAR B
ENCODING 66
SWIDTH 660 0
DWIDTH 16 0
BBX 15 17 2 0
BITMAP
1ff8
1ffe
1ffe
1e3e
1e3e
3c7c
3ff8
3ff0
3fe0
3cf8
7c7c
787c
787c
787c
7ffc
fff8
ffe0
ENDCHAR
STARTCHAR C
ENCODING 67
SWIDTH 737 0
DWIDTH 18 0
BBX 17 17 2 0
BITMAP
00ff00
03ff80
0fff80
1f8100
3f0000
3e0000
7c0000
780000
f80000
f80000
f80000
f80000
fc0000
7e0600
7ffc00
3ffc00
0ff000
ENDCHAR
STARTCHAR D
ENCODING 68
SWIDTH 822 0
DWIDTH 20 0
BBX 19 17 2 0
BITMAP
1fff00
1fff80
1fffc0
1f0fe0
1e03e0
3e03e0
3e03e0
3e03e0
3c03e0
3c03e0
7c07c0
7c0fc0
7c1f80
783f00
7ffe00
fffc00
ffe000
ENDCHAR
STARTCHAR E
ENCODING 69
SWIDTH 642 0
DWIDTH 15 0
BBX 15 17 2 0
BITMAP
1ffe
1ffe
1ffe
1e00
1e00
3e00
3e00
3ff0
3ff0
3ff0
7c00
7c00
7800
7800
7ff8
fff0
fff0
ENDCHAR
STARTCHAR F
ENCODING 70
SWIDTH 614 0
DWIDTH 15 0
BBX 15 17 2 0
BITMAP
1ffe
1ffe
1ffc
1e00
1e00
3e00
3e00
3ff0
3ff0
3ff0
7c00
7c00
7800
7800
7800
f800
f800
ENDCHAR
STARTCHAR G
ENCODING 71
SWIDTH 755 0
DWIDTH 18 0
BBX 17 17 2 0
BITMAP
00ff00
03ff80
0fff80
1f8100
3e0000
3e0000
7c0000
780000
f81e00
f81e00
f81e00
f81e00
fc3e00
7e3c00
7ffc00
3ffc00
0ff800
ENDCHAR
STARTCHAR H
ENCODING 72
SWIDTH 813 0
DWIDTH 20 0
BBX 19 17 2 0
BITMAP
1f03e0
1f03e0
1f03c0
1e03c0
1e07c0
3e07c0
3e07c0
3fff80
3fff80
3fff80
7c0f80
7c0f80
7c0f00
780f00
781f00
f81f00
f81f00
ENDCHAR
STARTCHAR I
ENCODING 73
SWIDTH 361 0
DWIDTH 9 0
BBX 8 17 2 0
BITMAP
1f
1f
1e
1e
1e
3e
3e
3c
3c
3c
7c
7c
78
78
78
f8
f8
ENDCHAR
STARTCHAR J
ENCODING 74
SWIDTH 502 0
DWIDTH 12 0
BBX 14 21 0 -4
BITMAP
007c
007c
0078
0078
00f8
00f8
00f8
00f0
00f0
01f0
01f0
01f0
01e0
01e0
03e0
03e0
03e0
47c0
ffc0
ff80
fe00
ENDCHAR
STARTCHAR K
ENCODING 75
SWIDTH 753 0
DWIDTH 18 0
BBX 16 17 2 0
BITMAP
1f0f
1f1e
1e3c
1e38
3e78
3ef0
3fe0
3dc0
3fe0
7fe0
7df0
7df0
78f8
78fc
f87c
f83e
f83f
ENDCHAR
STARTCHAR L
ENCODING 76
SWIDTH 623 0
DWIDTH 15 0
BBX 13 17 2 0
BITMAP
1f00
1f00
1e00
1e00
1e00
3e00
3e00
3c00
3c00
3c00
7c00
7c00
7800
7800
7ff8
fff8
fff8
ENDCHAR
STARTCHAR M
ENCODING 77
SWIDTH 940 0
DWIDTH 23 0
BBX 22 17 2 0
BITMAP
1f807c
1fc0fc
1fc1f8
1fc1f8
1fc3f8
3fc3f8
3fc7f8
3bcef0
3bcef0
39dcf0
79fcf0
79f9f0
71f9e0
71f1e0
71e1e0
f1e1e0
f003e0
ENDCHAR
STARTCHAR N
ENCODING 78
SWIDTH 789 0
DWIDTH 19 0
BBX 18 17 2 0
BITMAP
1e03c0
1f03c0
1f03c0
1f8380
3f8380
3fc780
3fc780
3be780
39e700
79f700
78ff00
78ff00
707f00
707e00
f03e00
f03e00
f01e00
ENDCHAR
STARTCHAR O
ENCODING 79
SWIDTH 855 0
DWIDTH 21 0
BBX 19 17 2 0
BITMAP
00fe00
03ff80
0fffc0
1f87e0
3e03e0
3c03e0
7c03e0
7803e0
f803e0
f803e0
f807c0
f807c0
f80f80
7c3f00
7ffe00
3ff800
0fe000
ENDCHAR
STARTCHAR P
ENCODING 80
SWIDTH 645 0
DWIDTH 15 0
BBX 15 17 2 0
BITMAP
1ff8
1ffe
1ffe
1e3e
3e3e
3e3e
3c3c
3c7c
3ff8
7ff0
7fc0
7800
7800
7800
f800
f800
f000
ENDCHAR
STARTCHAR Q
ENCODING 81
SWIDTH 855 0
DWIDTH 21 0
BBX 20 21 2 -4
BITMAP
00fe00
03ff80
0fffc0
1f87e0
3e03e0
3c03e0
7c03e0
7803e0
f803e0
f803e0
f807c0
f807c0
f80f80
7c3f00
7ffe00
3ff800
0ff800
003f80
001ff0
0007c0
000180
ENDCHAR
STARTCHAR R
ENCODING 82
SWIDTH 708 0
DWIDTH 17 0
BBX 16 17 2 0
BITMAP
1ffc
1fff
1fff
1e1f
1e1f
3e1e
3e3e
3cfc
3ff8
3ff0
7cf0
7cf0
78f8
7878
787c
f87c
f83e
ENDCHAR
STARTCHAR S
ENCODING 83
SWIDTH 639 0
DWIDTH 15 0
BBX 14 17 2 0
BITMAP
03f8
0ffc
1ffc
1e0c
3e00
3e00
3f00
1fc0
0fe0
07f0
01f8
00f8
00f8
41f0
fff0
ffe0
ff00
ENDCHAR
STARTCHAR T
ENCODING 84
SWIDTH 747 0
DWIDTH 18 0
BBX 18 17 3 0
BITMAP
ffffc0
ffffc0
ffffc0
03e000
03e000
03c000
03c000
07c000
07c000
07c000
078000
078000
0f8000
0f8000
0f8000
0f0000
1f0000
ENDCHAR
STARTCHAR U
ENCODING 85
SWIDTH 759 0
DWIDTH 18 0
BBX 17 17 3 0
BITMAP
3e0780
3e0780
3c0f80
3c0f00
7c0f00
7c0f00
7c0f00
781f00
781e00
f81e00
f81e00
f81e00
f83c00
fc7c00
7ff800
3ff000
0fc000
ENDCHAR
STARTCHAR V
ENCODING 86
SWIDTH 765 0
DWIDTH 18 0
BBX 17 17 4 0
BITMAP
f80780
f80700
f80f00
780e00
781e00
7c1c00
7c3800
7c7800
7c7000
3cf000
3ce000
3fe000
3fc000
3fc000
1f8000
1f0000
1f0000
ENDCHAR
STARTCHAR W
ENCODING 87
SWIDTH 991 0
DWIDTH 24 0
BBX 22 17 4 0
BITMAP
f0781c
f07838
f07838
f0f870
f0f870
f1f8e0
f9f8e0
fbf9c0
fbf9c0
fb7b80
7f7b80
7f7f80
7e7f00
7e7f00
7c7e00
7c7e00
787c00
ENDCHAR
STARTCHAR X
ENCODING 88
SWIDTH 696 0
DWIDTH 17 0
BBX 19 17 0 0
BITMAP
0f81e0
0f83c0
07c780
07cf00
03fe00
03fc00
03f800
01f800
01f000
03f800
03f800
077800
0f7c00
1e7c00
3c3e00
783e00
f03f00
ENDCHAR
STARTCHAR Y
ENCODING 89
SWIDTH 681 0
DWIDTH 16 0
BBX 15 17 4 0
BITMAP
f81e
f83c
7878
7c70
3cf0
3fe0
3fc0
1f80
1f80
1f00
1f00
1e00
1e00
1e00
3e00
3e00
3c00
ENDCHAR
STARTCHAR Z
ENCODING 90
SWIDTH 687 0
DWIDTH 16 0
BBX 17 17 1 0
BITMAP
0fff80
0fff80
0fff80
003f00
007e00
00fc00
01f800
01f000
03e000
07e000
0fc000
1f8000
3f0000
7e0000
7ffc00
fffc00
fffc00
ENDCHAR
STARTCHAR bracketleft
ENCODING 91
SWIDTH 386 0
DWIDTH 9 0
BBX 11 22 1 -4
BITMAP
07e0
0fe0
0fc0
0f00
0f00
1f00
1e00
1e00
1e00
1e00
3c00
3c00
3c00
3c00
3c00
7800
7800
7800
7800
7e00
fe00
fc00
ENDCHAR
STARTCHAR backslash
ENCODING 92
SWIDTH 566 0
DWIDTH 14 0
BBX 9 22 4 -4
BITMAP
e000
f000
7000
7000
7000
7800
3800
3800
3800
1c00
1c00
1c00
1c00
0e00
0e00
0e00
0f00
0700
0700
0700
0780
0380
ENDCHAR
STARTCHAR bracketright
ENCODING 93
SWIDTH 386 0
DWIDTH 9 0
BBX 11 22 0 -4
BITMAP
0fe0
0fe0
0fc0
03c0
03c0
03c0
03c0
0780
0780
0780
0780
0780
0f00
0f00
0f00
0f00
1f00
1e00
1e00
fe00
fe00
fc00
ENDCHAR
STARTCHAR asciicircum
ENCODING 94
SWIDTH 687 0
DWIDTH 16 0
BBX 14 14 2 3
BITMAP
0040
0040
00c0
01e0
01e0
03e0
0770
0770
0e30
1c38
3c38
3818
701c
f01c
ENDCHAR
STARTCHAR underscore
ENCODING 95
SWIDTH 500 0
DWIDTH 12 0
BBX 11 3 0 -3
BITMAP
ffe0
ffe0
ffe0
ENDCHAR
STARTCHAR grave
ENCODING 96
SWIDTH 663 0
DWIDTH 16 0
BBX 6 3 8 15
BITMAP
f0
38
1c
ENDCHAR
STARTCHAR a
ENCODING 97
SWIDTH 681 0
DWIDTH 16 0
BBX 15 13 2 0
BITMAP
03fe
07fe
1ffe
3e3c
3c3c
7c7c
787c
f8fc
f9f8
fb78
fe78
fcf8
78f8
ENDCHAR
STARTCHAR b
ENCODING 98
SWIDTH 681 0
DWIDTH 16 0
BBX 15 18 2 0
BITMAP
0f00
1f00
1f00
1e00
1e00
1e3c
3e7e
3cfe
3dfe
3d3e
3e3e
7c3c
7c7c
7878
78f8
7ff0
ffc0
ff80
ENDCHAR
STARTCHAR c
ENCODING 99
SWIDTH 548 0
DWIDTH 13 0
BBX 13 13 2 0
BITMAP
03f0
0ff8
1ff0
3e10
7c00
7c00
f800
f800
f800
f820
ffe0
7fe0
3f80
ENDCHAR
STARTCHAR d
ENCODING 100
SWIDTH 681 0
DWIDTH 16 0
BBX 16 18 2 0
BITMAP
001f
001f
001e
001e
003e
03fe
07fe
1ffc
3e3c
3c3c
7c7c
78fc
f8f8
f978
fb78
fef8
fcf8
78f0
ENDCHAR
STARTCHAR e
ENCODING 101
SWIDTH 612 0
DWIDTH 15 0
BBX 13 13 2 0
BITMAP
03e0
0ff0
1ff8
3c78
78f0
7ff0
ffc0
ff00
f808
f838
fff8
7ff0
1f80
ENDCHAR
STARTCHAR f
ENCODING 102
SWIDTH 464 0
DWIDTH 11 0
BBX 14 23 1 -5
BITMAP
00f8
03fc
07fc
0f84
0f00
3fe0
3fe0
7fe0
1e00
1e00
3e00
3e00
3e00
3c00
3c00
7c00
7c00
7c00
7c00
7800
f800
f800
f800
ENDCHAR
STARTCHAR g
ENCODING 103
SWIDTH 674 0
DWIDTH 16 0
BBX 16 18 1 -5
BITMAP
01ff
07ff
0fff
1f1e
3e3e
3c3e
7c7e
78fe
79bc
7fbc
7f7c
7e7c
3c7c
80f8
e0f8
fff0
7fe0
7f80
ENDCHAR
STARTCHAR h
ENCODING 104
SWIDTH 675 0
DWIDTH 16 0
BBX 15 18 2 0
BITMAP
0f00
1f00
1f00
1f00
1f00
1e1c
3e7e
3efe
3efe
3dbe
3f3c
7e3c
7c7c
7c7c
787c
7878
f878
f8f8
ENDCHAR
STARTCHAR i
ENCODING 105
SWIDTH 343 0
DWIDTH 8 0
BBX 8 18 2 0
BITMAP
1f
1f
1f
1e
00
3e
3e
3c
3c
3c
7c
7c
78
78
78
f8
f8
f8
ENDCHAR
STARTCHAR j
ENCODING 106
SWIDTH 407 0
DWIDTH 10 0
BBX 14 23 -1 -5
BITMAP
007c
007c
007c
0078
0000
00f8
00f8
00f0
00f0
01f0
01f0
01f0
01e0
01e0
03e0
03e0
03e0
03c0
07c0
c780
ff80
ff00
7c00
ENDCHAR
STARTCHAR k
ENCODING 107
SWIDTH 666 0
DWIDTH 16 0
BBX 15 18 2 0
BITMAP
1f00
1f00
1f00
1e00
1e00
3e1e
3e3c
3e78
3c70
3ce0
7dc0
7fe0
7fe0
79e0
79f0
f8f0
f8f8
f8fc
ENDCHAR
STARTCHAR l
ENCODING 108
SWIDTH 343 0
DWIDTH 8 0
BBX 8 18 2 0
BITMAP
1f
1f
1f
1e
1e
3e
3e
3e
3c
3c
7c
7c
7c
78
78
f8
f8
f8
ENDCHAR
STARTCHAR m
ENCODING 109
SWIDTH 991 0
DWIDTH 24 0
BBX 22 13 2 0
BITMAP
3e3878
3cfcfc
3dfdfc
3dfffc
3f7f7c
7f7f7c
7e7e78
7c7c78
7c7c78
7878f8
f8f8f8
f8f0f0
f0f0f0
ENDCHAR
STARTCHAR n
ENCODING 110
SWIDTH 675 0
DWIDTH 16 0
BBX 15 13 2 0
BITMAP
1e1c
3e7e
3efe
3dfe
3dbe
3f3c
7e3c
7c7c
7c7c
787c
7878
f878
f8f8
ENDCHAR
STARTCHAR o
ENCODING 111
SWIDTH 663 0
DWIDTH 16 0
BBX 15 13 2 0
BITMAP
03f0
0ffc
1ffc
3e7e
7c3e
783e
f83c
f83c
f878
f8f8
fff0
7fe0
1f00
ENDCHAR
STARTCHAR p
ENCODING 112
SWIDTH 681 0
DWIDTH 16 0
BBX 16 18 1 -5
BITMAP
1f1e
1f3f
1e7f
1edf
1f9f
3f1f
3e1e
3e3e
3c3c
3c7c
7ff8
7fe0
7fc0
7800
7800
f800
f800
f800
ENDCHAR
STARTCHAR q
ENCODING 113
SWIDTH 681 0
DWIDTH 16 0
BBX 15 18 2 -5
BITMAP
03fe
07fe
1ffe
3e3c
3c3c
7c7c
78fc
f8fc
f978
ff78
fe78
fcf8
78f8
00f0
00f0
01f0
01f0
01f0
ENDCHAR
STARTCHAR r
ENCODING 114
SWIDTH 542 0
DWIDTH 13 0
BBX 13 13 2 0
BITMAP
3e38
3e70
3ef0
3df0
3d80
7f00
7e00
7c00
7c00
7800
f800
f800
f800
ENDCHAR
STARTCHAR s
ENCODING 115
SWIDTH 527 0
DWIDTH 13 0
BBX 12 13 1 0
BITMAP
07f0
1ff0
1fe0
3e00
1e00
1f00
0f80
07c0
03e0
43e0
ffc0
ffc0
7f00
ENDCHAR
STARTCHAR t
ENCODING 116
SWIDTH 437 0
DWIDTH 10 0
BBX 9 16 3 0
BITMAP
0e00
3e00
3e00
ff80
ff80
ff80
7c00
7c00
7c00
7800
7800
f800
f800
ff00
fe00
7e00
ENDCHAR
STARTCHAR u
ENCODING 117
SWIDTH 675 0
DWIDTH 16 0
BBX 15 13 2 0
BITMAP
3e3e
3c3e
3c3c
7c3c
7c7c
7c7c
78fc
79f8
fb78
fe78
fef8
fcf8
70f0
ENDCHAR
STARTCHAR v
ENCODING 118
SWIDTH 630 0
DWIDTH 15 0
BBX 15 13 3 0
BITMAP
f81e
f81c
f83c
7878
7c70
7cf0
7ce0
7de0
3fc0
3f80
3f80
3f00
3f00
ENDCHAR
STARTCHAR w
ENCODING 119
SWIDTH 878 0
DWIDTH 21 0
BBX 20 13 3 0
BITMAP
f0f0f0
f0f0e0
f1f1e0
f1f1c0
f3fbc0
f3fb80
f77f80
f77f00
fe7f00
fe7e00
fc7e00
fc7c00
f87c00
ENDCHAR
STARTCHAR x
ENCODING 120
SWIDTH 563 0
DWIDTH 14 0
BBX 15 13 0 0
BITMAP
1f1e
1f3c
0f78
0ff0
07e0
07e0
07c0
0fc0
0fe0
1fe0
3df0
79f0
f0f8
ENDCHAR
STARTCHAR y
ENCODING 121
SWIDTH 633 0
DWIDTH 15 0
BBX 17 18 1 -5
BITMAP
3e0780
3e0700
3e0e00
1e1e00
1f1c00
1f3800
1f7800
1f7000
0fe000
0fe000
0fc000
0f8000
0f8000
0f0000
1e0000
3e0000
7c0000
f80000
ENDCHAR
STARTCHAR z
ENCODING 122
SWIDTH 630 0
DWIDTH 15 0
BBX 15 13 1 0
BITMAP
1ffe
1ffe
3ffc
00fc
01f0
03e0
07c0
0f80
1f00
7e00
7ffc
fff8
fff8
ENDCHAR
STARTCHAR braceleft
ENCODING 123
SWIDTH 386 0
DWIDTH 9 0
BBX 9 22 2 -4
BITMAP
0780
0f80
1f80
1e00
1e00
1e00
1e00
1e00
1e00
3c00
7800
f000
7800
3c00
3c00
7c00
7800
f800
f800
f800
7800
3800
ENDCHAR
STARTCHAR bar
ENCODING 124
SWIDTH 259 0
DWIDTH 6 0
BBX 7 22 1 -4
BITMAP
0e
0e
0e
0c
1c
1c
1c
1c
18
38
38
38
38
30
70
70
70
70
60
e0
e0
e0
ENDCHAR
STARTCHAR braceright
ENCODING 125
SWIDTH 386 0
DWIDTH 9 0
BBX 9 22 1 -4
BITMAP
0e00
0f00
0f80
0f80
0f80
0f00
1f00
1e00
1e00
0f00
0f80
0f00
1e00
3c00
3c00
3c00
3c00
3c00
7c00
fc00
f800
f000
ENDCHAR
STARTCHAR asciitilde
ENCODING 126
SWIDTH 687 0
DWIDTH 16 0
BBX 15 6 2 4
BITMAP
3c06
7f0e
7f8c
e3fc
e1fc
c078
ENDCHAR
STARTCHAR nobreakspace
ENCODING 160
SWIDTH 343 0
DWIDTH 8 0
BBX 1 1 0 0
BITMAP
00
ENDCHAR
STARTCHAR Aogonek
ENCODING 161
SWIDTH 771 0
DWIDTH 18 0
BBX 17 20 1 -3
BITMAP
007c00
00fc00
00fc00
01fc00
01fe00
03fe00
039e00
079e00
071e00
0e1f00
0fff00
1fff00
3fff00
380f00
780f80
700f80
f00780
01c000
038000
03e000
ENDCHAR
STARTCHAR breve
ENCODING 162
SWIDTH 663 0
DWIDTH 16 0
BBX 9 3 7 15
BITMAP
e380
ff00
7c00
ENDCHAR
STARTCHAR Lstroke
ENCODING 163
SWIDTH 623 0
DWIDTH 15 0
BBX 15 17 0 0
BITMAP
07c0
07c0
0f80
0f80
0fa0
0fe0
0fe0
1fc0
3f00
7f00
ff00
de00
3e00
3e00
3ffe
3ffe
7ffe
ENDCHAR
STARTCHAR currency
ENCODING 164
SWIDTH 687 0
DWIDTH 16 0
BBX 19 17 0 0
BITMAP
080040
1c00e0
1c03c0
0ef780
07ff00
07fe00
079e00
0f1e00
0f1e00
0f1e00
0f3c00
0ffc00
1ffc00
3dee00
780700
e00700
400200
ENDCHAR
STARTCHAR Lcaron
ENCODING 165
SWIDTH 708 0
DWIDTH 17 0
BBX 15 19 2 0
BITMAP
003e
003e
1f3e
1f3c
1e3c
1e1c
1e78
3e70
3e00
3c00
3c00
3c00
7c00
7c00
7800
7800
7ff8
fff8
fff8
ENDCHAR
STARTCHAR Sacute
ENCODING 166
SWIDTH 639 0
DWIDTH 15 0
BBX 14 21 2 0
BITMAP
003c
0070
01c0
0000
03f8
0ffc
1ffc
1e0c
3e00
3e00
3f00
1fc0
0fe0
07f0
01f8
00f8
00f8
41f0
fff0
ffe0
ff00
ENDCHAR
STARTCHAR section
ENCODING 167
SWIDTH 687 0
DWIDTH 16 0
BBX 15 22 2 -5
BITMAP
03fc
0ffe
1ffe
1f06
1f00
1f80
0fe0
0ff0
1ff8
3cfc
383c
3c3c
3f38
3ff8
1ff0
07f0
01f8
00f8
41f8
fff0
ffe0
7f80
ENDCHAR
STARTCHAR diaeresis
ENCODING 168
SWIDTH 663 0
DWIDTH 16 0
BBX 8 3 8 14
BITMAP
e7
e7
e7
ENDCHAR
STARTCHAR Scaron
ENCODING 169
SWIDTH 639 0
DWIDTH 15 0
BBX 14 21 2 0
BITMAP
071c
03f0
01e0
0000
03f8
0ffc
1ffc
1e0c
3e00
3e00
3f00
1fc0
0fe0
07f0
01f8
00f8
00f8
41f0
fff0
ffe0
ff00
ENDCHAR
STARTCHAR Scedilla
ENCODING 170
SWIDTH 639 0
DWIDTH 15 0
BBX 14 22 2 -5
BITMAP
03f8
0ffc
1ffc
1e0c
3e00
3e00
3f00
1fc0
0fe0
07f0
01f8
00f8
00f8
41f0
fff0
ffe0
ff00
0380
0700
0380
0180
0f00
ENDCHAR
STARTCHAR Tcaron
ENCODING 171
SWIDTH 747 0
DWIDTH 18 0
BBX 18 21 3 0
BITMAP
038e00
01f800
00f000
000000
ffffc0
ffffc0
ffffc0
03e000
03e000
03c000
03c000
07c000
07c000
07c000
078000
078000
0f8000
0f8000
0f8000
0f0000
1f0000
ENDCHAR
STARTCHAR Zacute
ENCODING 172
SWIDTH 687 0
DWIDTH 16 0
BBX 17 21 1 0
BITMAP
000f00
001c00
007000
000000
0fff80
0fff80
0fff80
003f00
007e00
00fc00
01f800
01f000
03e000
07e000
0fc000
1f8000
3f0000
7e0000
7ffc00
fffc00
fffc00
ENDCHAR
STARTCHAR hyphen
ENCODING 173
SWIDTH 289 0
DWIDTH 7 0
BBX 6 3 2 6
BITMAP
fc
fc
fc
ENDCHAR
STARTCHAR Zcaron
ENCODING 174
SWIDTH 687 0
DWIDTH 16 0
BBX 17 21 1 0
BITMAP
01c700
00fc00
007800
000000
0fff80
0fff80
0fff80
003f00
007e00
00fc00
01f800
01f000
03e000
07e000
0fc000
1f8000
3f0000
7e0000
7ffc00
fffc00
fffc00
ENDCHAR
STARTCHAR Zabovedot
ENCODING 175
SWIDTH 687 0
DWIDTH 16 0
BBX 17 21 1 0
BITMAP
003800
007800
007000
000000
0fff80
0fff80
0fff80
003f00
007e00
00fc00
01f800
01f000
03e000
07e000
0fc000
1f8000
3f0000
7e0000
7ffc00
fffc00
fffc00
ENDCHAR
STARTCHAR degree
ENCODING 176
SWIDTH 241 0
DWIDTH 6 0
BBX 4 4 4 13
BITMAP
60
90
90
60
ENDCHAR
STARTCHAR aogonek
ENCODING 177
SWIDTH 681 0
DWIDTH 16 0
BBX 15 16 2 -3
BITMAP
03fe
07fe
1ffe
3e3c
3c3c
7c7c
787c
f8fc
f9f8
fb78
fe78
fcf8
78f8
0380
0700
07c0
ENDCHAR
STARTCHAR ogonek
ENCODING 178
SWIDTH 663 0
DWIDTH 16 0
BBX 5 3 5 -4
BITMAP
70
e0
f8
ENDCHAR
STARTCHAR lstroke
ENCODING 179
SWIDTH 343 0
DWIDTH 8 0
BBX 11 18 1 0
BITMAP
07c0
0780
0f80
0f80
0fa0
0fe0
0fc0
1fc0
1f00
7f00
fe00
de00
be00
3e00
3e00
3c00
3c00
7c00
ENDCHAR
STARTCHAR acute
ENCODING 180
SWIDTH 663 0
DWIDTH 16 0
BBX 7 3 9 15
BITMAP
1e
38
e0
ENDCHAR
STARTCHAR lcaron
ENCODING 181
SWIDTH 625 0
DWIDTH 15 0
BBX 15 20 2 0
BITMAP
003e
003e
1f3e
1f3c
1f3c
1e1c
1e78
3e70
3e00
3e00
3c00
3c00
7c00
7c00
7c00
7800
7800
f800
f800
f800
ENDCHAR
STARTCHAR sacute
ENCODING 182
SWIDTH 527 0
DWIDTH 13 0
BBX 13 17 1 0
BITMAP
0078
00e0
0380
0000
07f0
1ff0
1fe0
3e00
1e00
1f00
0f80
07c0
03e0
43e0
ffc0
ffc0
7f00
ENDCHAR
STARTCHAR caron
ENCODING 183
SWIDTH 663 0
DWIDTH 16 0
BBX 9 3 7 15
BITMAP
e380
7e00
3c00
ENDCHAR
STARTCHAR cedilla
ENCODING 184
SWIDTH 663 0
DWIDTH 16 0
BBX 5 5 5 -5
BITMAP
38
70
38
18
f0
ENDCHAR
STARTCHAR scaron
ENCODING 185
SWIDTH 527 0
DWIDTH 13 0
BBX 13 17 1 0
BITMAP
0e38
07e0
03c0
0000
07f0
1ff0
1fe0
3e00
1e00
1f00
0f80
07c0
03e0
43e0
ffc0
ffc0
7f00
ENDCHAR
STARTCHAR scedilla
ENCODING 186
SWIDTH 527 0
DWIDTH 13 0
BBX 12 18 1 -5
BITMAP
07f0
1ff0
1fe0
3e00
1e00
1f00
0f80
07c0
03e0
43e0
ffc0
ffc0
7f00
0700
0e00
0700
0300
1e00
ENDCHAR
STARTCHAR tcaron
ENCODING 187
SWIDTH 625 0
DWIDTH 15 0
BBX 14 22 3 0
BITMAP
007c
007c
007c
0078
0078
0038
0ef0
3ee0
3e00
ff80
ff80
ff80
7c00
7c00
7c00
7800
7800
f800
f800
ff00
fe00
7e00
ENDCHAR
STARTCHAR zacute
ENCODING 188
SWIDTH 630 0
DWIDTH 15 0
BBX 15 17 1 0
BITMAP
003c
0070
01c0
0000
1ffe
1ffe
3ffc
00fc
01f0
03e0
07c0
0f80
1f00
7e00
7ffc
fff8
fff8
ENDCHAR
STARTCHAR doubleacute
ENCODING 189
SWIDTH 663 0
DWIDTH 16 0
BBX 10 3 8 15
BITMAP
1dc0
3300
ee00
ENDCHAR
STARTCHAR zcaron
ENCODING 190
SWIDTH 630 0
DWIDTH 15 0
BBX 15 17 1 0
BITMAP
071c
03f0
01e0
0000
1ffe
1ffe
3ffc
00fc
01f0
03e0
07c0
0f80
1f00
7e00
7ffc
fff8
fff8
ENDCHAR
STARTCHAR zabovedot
ENCODING 191
SWIDTH 630 0
DWIDTH 15 0
BBX 15 17 1 0
BITMAP
00e0
01e0
01c0
0000
1ffe
1ffe
3ffc
00fc
01f0
03e0
07c0
0f80
1f00
7e00
7ffc
fff8
fff8
ENDCHAR
STARTCHAR Racute
ENCODING 192
SWIDTH 708 0
DWIDTH 17 0
BBX 16 21 2 0
BITMAP
001e
0038
00e0
0000
1ffc
1fff
1fff
1e1f
1e1f
3e1e
3e3e
3cfc
3ff8
3ff0
7cf0
7cf0
78f8
7878
787c
f87c
f83e
ENDCHAR
STARTCHAR Aacute
ENCODING 193
SWIDTH 771 0
DWIDTH 18 0
BBX 17 21 1 0
BITMAP
000780
000e00
003800
000000
007c00
00fc00
00fc00
01fc00
01fe00
03fe00
039e00
079e00
071e00
0e1f00
0fff00
1fff00
3fff00
380f00
780f80
700f80
f00780
ENDCHAR
STARTCHAR Acircumflex
ENCODING 194
SWIDTH 771 0
DWIDTH 18 0
BBX 17 21 1 0
BITMAP
001e00
003f00
00e380
000000
007c00
00fc00
00fc00
01fc00
01fe00
03fe00
039e00
079e00
071e00
0e1f00
0fff00
1fff00
3fff00
380f00
780f80
700f80
f00780
ENDCHAR
STARTCHAR Abreve
ENCODING 195
SWIDTH 771 0
DWIDTH 18 0
BBX 17 21 1 0
BITMAP
00e380
00ff00
007c00
000000
007c00
00fc00
00fc00
01fc00
01fe00
03fe00
039e00
079e00
071e00
0e1f00
0fff00
1fff00
3fff00
380f00
780f80
700f80
f00780
ENDCHAR
STARTCHAR Adiaeresis
ENCODING 196
SWIDTH 771 0
DWIDTH 18 0
BBX 17 21 1 0
BITMAP
00e700
00e700
00e700
000000
007c00
00fc00
00fc00
01fc00
01fe00
03fe00
039e00
079e00
071e00
0e1f00
0fff00
1fff00
3fff00
380f00
780f80
700f80
f00780
ENDCHAR
STARTCHAR Lacute
ENCODING 197
SWIDTH 623 0
DWIDTH 15 0
BBX 13 21 2 0
BITMAP
01e0
0380
0e00
0000
1f00
1f00
1e00
1e00
1e00
3e00
3e00
3c00
3c00
3c00
7c00
7c00
7800
7800
7ff8
fff8
fff8
ENDCHAR
STARTCHAR Cacute
ENCODING 198
SWIDTH 737 0
DWIDTH 18 0
BBX 17 21 2 0
BITMAP
000f00
001c00
007000
000000
00ff00
03ff80
0fff80
1f8100
3f0000
3e0000
7c0000
780000
f80000
f80000
f80000
f80000
fc0000
7e0600
7ffc00
3ffc00
0ff000
ENDCHAR
STARTCHAR Ccedilla
ENCODING 199
SWIDTH 737 0
DWIDTH 18 0
BBX 17 22 2 -5
BITMAP
00ff00
03ff80
0fff80
1f8100
3f0000
3e0000
7c0000
780000
f80000
f80000
f80000
f80000
fc0000
7e0600
7ffc00
3ffc00
0ff000
060000
0e0000
070000
030000
1e0000
ENDCHAR
STARTCHAR Ccaron
ENCODING 200
SWIDTH 737 0
DWIDTH 18 0
BBX 17 21 2 0
BITMAP
01c700
00fc00
007800
000000
00ff00
03ff80
0fff80
1f8100
3f0000
3e0000
7c0000
780000
f80000
f80000
f80000
f80000
fc0000
7e0600
7ffc00
3ffc00
0ff000
ENDCHAR
STARTCHAR Eacute
ENCODING 201
SWIDTH 642 0
DWIDTH 15 0
BBX 15 21 2 0
BITMAP
003c
0070
01c0
0000
1ffe
1ffe
1ffe
1e00
1e00
3e00
3e00
3ff0
3ff0
3ff0
7c00
7c00
7800
7800
7ff8
fff0
fff0
ENDCHAR
STARTCHAR Eogonek
ENCODING 202
SWIDTH 642 0
DWIDTH 15 0
BBX 15 20 2 -3
BITMAP
1ffe
1ffe
1ffe
1e00
1e00
3e00
3e00
3ff0
3ff0
3ff0
7c00
7c00
7800
7800
7ff8
fff0
fff0
0380
0700
07c0
ENDCHAR
STARTCHAR Ediaeresis
ENCODING 203
SWIDTH 642 0
DWIDTH 15 0
BBX 15 21 2 0
BITMAP
0738
0738
0738
0000
1ffe
1ffe
1ffe
1e00
1e00
3e00
3e00
3ff0
3ff0
3ff0
7c00
7c00
7800
7800
7ff8
fff0
fff0
ENDCHAR
STARTCHAR Ecaron
ENCODING 204
SWIDTH 642 0
DWIDTH 15 0
BBX 15 21 2 0
BITMAP
038e
01f8
00f0
0000
1ffe
1ffe
1ffe
1e00
1e00
3e00
3e00
3ff0
3ff0
3ff0
7c00
7c00
7800
7800
7ff8
fff0
fff0
ENDCHAR
STARTCHAR Iacute
ENCODING 205
SWIDTH 361 0
DWIDTH 9 0
BBX 10 21 2 0
BITMAP
03c0
0700
1c00
0000
1f00
1f00
1e00
1e00
1e00
3e00
3e00
3c00
3c00
3c00
7c00
7c00
7800
7800
7800
f800
f800
ENDCHAR
STARTCHAR Icircumflex
ENCODING 206
SWIDTH 361 0
DWIDTH 9 0
BBX 10 21 2 0
BITMAP
0f00
1f80
71c0
0000
1f00
1f00
1e00
1e00
1e00
3e00
3e00
3c00
3c00
3c00
7c00
7c00
7800
7800
7800
f800
f800
ENDCHAR
STARTCHAR Dcaron
ENCODING 207
SWIDTH 822 0
DWIDTH 20 0
BBX 19 21 2 0
BITMAP
01c700
00fc00
007800
000000
1fff00
1fff80
1fffc0
1f0fe0
1e03e0
3e03e0
3e03e0
3e03e0
3c03e0
3c03e0
7c07c0
7c0fc0
7c1f80
783f00
7ffe00
fffc00
ffe000
ENDCHAR
STARTCHAR Dstroke
ENCODING 208
SWIDTH 822 0
DWIDTH 20 0
BBX 20 17 1 0
BITMAP
0fff80
0fffc0
0fffe0
0f07f0
1f01f0
1f01f0
1f01f0
ffe1f0
ffe1f0
ffe1e0
3e03e0
3e07e0
3c0fc0
3c1f80
7fff00
7ffe00
7ff000
ENDCHAR
STARTCHAR Nacute
ENCODING 209
SWIDTH 789 0
DWIDTH 19 0
BBX 18 21 2 0
BITMAP
000f00
001c00
007000
000000
1e03c0
1f03c0
1f03c0
1f8380
3f8380
3fc780
3fc780
3be780
39e700
79f700
78ff00
78ff00
707f00
707e00
f03e00
f03e00
f01e00
ENDCHAR
STARTCHAR Ncaron
ENCODING 210
SWIDTH 789 0
DWIDTH 19 0
BBX 18 21 2 0
BITMAP
01c700
00fc00
007800
000000
1e03c0
1f03c0
1f03c0
1f8380
3f8380
3fc780
3fc780
3be780
39e700
79f700
78ff00
78ff00
707f00
707e00
f03e00
f03e00
f01e00
ENDCHAR
STARTCHAR Oacute
ENCODING 211
SWIDTH 855 0
DWIDTH 21 0
BBX 19 21 2 0
BITMAP
000f00
001c00
007000
000000
00fe00
03ff80
0fffc0
1f87e0
3e03e0
3c03e0
7c03e0
7803e0
f803e0
f803e0
f807c0
f807c0
f80f80
7c3f00
7ffe00
3ff800
0fe000
ENDCHAR
STARTCHAR Ocircumflex
ENCODING 212
SWIDTH 855 0
DWIDTH 21 0
BBX 19 21 2 0
BITMAP
003c00
007e00
01c700
000000
00fe00
03ff80
0fffc0
1f87e0
3e03e0
3c03e0
7c03e0
7803e0
f803e0
f803e0
f807c0
f807c0
f80f80
7c3f00
7ffe00
3ff800
0fe000
ENDCHAR
STARTCHAR Odoubleacute
ENCODING 213
SWIDTH 855 0
DWIDTH 21 0
BBX 19 21 2 0
BITMAP
001dc0
003300
00ee00
000000
00fe00
03ff80
0fffc0
1f87e0
3e03e0
3c03e0
7c03e0
7803e0
f803e0
f803e0
f807c0
f807c0
f80f80
7c3f00
7ffe00
3ff800
0fe000
ENDCHAR
STARTCHAR Odiaeresis
ENCODING 214
SWIDTH 855 0
DWIDTH 21 0
BBX 19 21 2 0
BITMAP
00e700
00e700
00e700
000000
00fe00
03ff80
0fffc0
1f87e0
3e03e0
3c03e0
7c03e0
7803e0
f803e0
f803e0
f807c0
f807c0
f80f80
7c3f00
7ffe00
3ff800
0fe000
ENDCHAR
STARTCHAR multiply
ENCODING 215
SWIDTH 687 0
DWIDTH 16 0
BBX 16 14 2 0
BITMAP
1002
3807
1c1e
0e3c
0f78
07f0
03e0
07c0
0fe0
1ef0
3c70
7838
e01c
4008
ENDCHAR
STARTCHAR Rcaron
ENCODING 216
SWIDTH 708 0
DWIDTH 17 0
BBX 16 21 2 0
BITMAP
038e
01f8
00f0
0000
1ffc
1fff
1fff
1e1f
1e1f
3e1e
3e3e
3cfc
3ff8
3ff0
7cf0
7cf0
78f8
7878
787c
f87c
f83e
ENDCHAR
STARTCHAR Uring
ENCODING 217
SWIDTH 759 0
DWIDTH 18 0
BBX 17 22 3 0
BITMAP
006000
009000
009000
006000
000000
3e0780
3e0780
3c0f80
3c0f00
7c0f00
7c0f00
7c0f00
781f00
781e00
f81e00
f81e00
f81e00
f83c00
fc7c00
7ff800
3ff000
0fc000
ENDCHAR
STARTCHAR Uacute
ENCODING 218
SWIDTH 759 0
DWIDTH 18 0
BBX 17 21 3 0
BITMAP
003c00
007000
01c000
000000
3e0780
3e0780
3c0f80
3c0f00
7c0f00
7c0f00
7c0f00
781f00
781e00
f81e00
f81e00
f81e00
f83c00
fc7c00
7ff800
3ff000
0fc000
ENDCHAR
STARTCHAR Udoubleacute
ENCODING 219
SWIDTH 759 0
DWIDTH 18 0
BBX 17 21 3 0
BITMAP
007700
00cc00
03b800
000000
3e0780
3e0780
3c0f80
3c0f00
7c0f00
7c0f00
7c0f00
781f00
781e00
f81e00
f81e00
f81e00
f83c00
fc7c00
7ff800
3ff000
0fc000
ENDCHAR
STARTCHAR Udiaeresis
ENCODING 220
SWIDTH 759 0
DWIDTH 18 0
BBX 17 21 3 0
BITMAP
039c00
039c00
039c00
000000
3e0780
3e0780
3c0f80
3c0f00
7c0f00
7c0f00
7c0f00
781f00
781e00
f81e00
f81e00
f81e00
f83c00
fc7c00
7ff800
3ff000
0fc000
ENDCHAR
STARTCHAR Yacute
ENCODING 221
SWIDTH 681 0
DWIDTH 16 0
BBX 15 21 4 0
BITMAP
00f0
01c0
0700
0000
f81e
f83c
7878
7c70
3cf0
3fe0
3fc0
1f80
1f80
1f00
1f00
1e00
1e00
1e00
3e00
3e00
3c00
ENDCHAR
STARTCHAR Tcedilla
ENCODING 222
SWIDTH 747 0
DWIDTH 18 0
BBX 18 22 3 -5
BITMAP
ffffc0
ffffc0
ffffc0
03e000
03e000
03c000
03c000
07c000
07c000
07c000
078000
078000
0f8000
0f8000
0f8000
0f0000
1f0000
00e000
01c000
00e000
006000
03c000
ENDCHAR
STARTCHAR ssharp
ENCODING 223
SWIDTH 708 0
DWIDTH 17 0
BBX 16 23 1 -5
BITMAP
00fc
03fe
07fe
0f9e
0f1c
0f1c
1f38
1f70
1f78
1e7c
1e7c
3e3e
3e1f
3e0f
3c0f
3cff
7dfe
7dfc
7800
7800
7800
f800
f800
ENDCHAR
STARTCHAR racute
ENCODING 224
SWIDTH 542 0
DWIDTH 13 0
BBX 13 17 2 0
BITMAP
0078
00e0
0380
0000
3e38
3e70
3ef0
3df0
3d80
7f00
7e00
7c00
7c00
7800
f800
f800
f800
ENDCHAR
STARTCHAR aacute
ENCODING 225
SWIDTH 681 0
DWIDTH 16 0
BBX 15 17 2 0
BITMAP
003c
0070
01c0
0000
03fe
07fe
1ffe
3e3c
3c3c
7c7c
787c
f8fc
f9f8
fb78
fe78
fcf8
78f8
ENDCHAR
STARTCHAR acircumflex
ENCODING 226
SWIDTH 681 0
DWIDTH 16 0
BBX 15 17 2 0
BITMAP
00f0
01f8
071c
0000
03fe
07fe
1ffe
3e3c
3c3c
7c7c
787c
f8fc
f9f8
fb78
fe78
fcf8
78f8
ENDCHAR
STARTCHAR abreve
ENCODING 227
SWIDTH 681 0
DWIDTH 16 0
BBX 15 17 2 0
BITMAP
038e
03fc
01f0
0000
03fe
07fe
1ffe
3e3c
3c3c
7c7c
787c
f8fc
f9f8
fb78
fe78
fcf8
78f8
ENDCHAR
STARTCHAR adiaeresis
ENCODING 228
SWIDTH 681 0
DWIDTH 16 0
BBX 15 17 2 0
BITMAP
039c
039c
039c
0000
03fe
07fe
1ffe
3e3c
3c3c
7c7c
787c
f8fc
f9f8
fb78
fe78
fcf8
78f8
ENDCHAR
STARTCHAR lacute
ENCODING 229
SWIDTH 343 0
DWIDTH 8 0
BBX 11 22 2 0
BITMAP
01e0
0380
0e00
0000
1f00
1f00
1f00
1e00
1e00
3e00
3e00
3e00
3c00
3c00
7c00
7c00
7c00
7800
7800
f800
f800
f800
ENDCHAR
STARTCHAR cacute
ENCODING 230
SWIDTH 548 0
DWIDTH 13 0
BBX 14 17 2 0
BITMAP
003c
0070
01c0
0000
03f0
0ff8
1ff0
3e10
7c00
7c00
f800
f800
f800
f820
ffe0
7fe0
3f80
ENDCHAR
STARTCHAR ccedilla
ENCODING 231
SWIDTH 548 0
DWIDTH 13 0
BBX 13 18 2 -5
BITMAP
03f0
0ff8
1ff0
3e10
7c00
7c00
f800
f800
f800
f820
ffe0
7fe0
3f80
0c00
1c00
0e00
0600
3c00
ENDCHAR
STARTCHAR ccaron
ENCODING 232
SWIDTH 548 0
DWIDTH 13 0
BBX 14 17 2 0
BITMAP
071c
03f0
01e0
0000
03f0
0ff8
1ff0
3e10
7c00
7c00
f800
f800
f800
f820
ffe0
7fe0
3f80
ENDCHAR
STARTCHAR eacute
ENCODING 233
SWIDTH 612 0
DWIDTH 15 0
BBX 14 17 2 0
BITMAP
003c
0070
01c0
0000
03e0
0ff0
1ff8
3c78
78f0
7ff0
ffc0
ff00
f808
f838
fff8
7ff0
1f80
ENDCHAR
STARTCHAR eogonek
ENCODING 234
SWIDTH 612 0
DWIDTH 15 0
BBX 13 16 2 -3
BITMAP
03e0
0ff0
1ff8
3c78
78f0
7ff0
ffc0
ff00
f808
f838
fff8
7ff0
1f80
0700
0e00
0f80
ENDCHAR
STARTCHAR ediaeresis
ENCODING 235
SWIDTH 612 0
DWIDTH 15 0
BBX 13 17 2 0
BITMAP
0738
0738
0738
0000
03e0
0ff0
1ff8
3c78
78f0
7ff0
ffc0
ff00
f808
f838
fff8
7ff0
1f80
ENDCHAR
STARTCHAR ecaron
ENCODING 236
SWIDTH 612 0
DWIDTH 15 0
BBX 14 17 2 0
BITMAP
071c
03f0
01e0
0000
03e0
0ff0
1ff8
3c78
78f0
7ff0
ffc0
ff00
f808
f838
fff8
7ff0
1f80
ENDCHAR
STARTCHAR iacute
ENCODING 237
SWIDTH 343 0
DWIDTH 8 0
BBX 10 17 2 0
BITMAP
03c0
0700
1c00
0000
3e00
3e00
3e00
3c00
3c00
7c00
7c00
7c00
7800
7800
f800
f800
f800
ENDCHAR
STARTCHAR icircumflex
ENCODING 238
SWIDTH 343 0
DWIDTH 8 0
BBX 10 17 2 0
BITMAP
0f00
1f80
71c0
0000
3e00
3e00
3e00
3c00
3c00
7c00
7c00
7c00
7800
7800
f800
f800
f800
ENDCHAR
STARTCHAR dcaron
ENCODING 239
SWIDTH 958 0
DWIDTH 23 0
BBX 23 20 2 0
BITMAP
00003e
00003e
001f3e
001f3c
001e3c
001e1c
003e78
03fe70
07fe00
1ffc00
3e3c00
3c3c00
7c7c00
78fc00
f8f800
f97800
fb7800
fef800
fcf800
78f000
ENDCHAR
STARTCHAR dstroke
ENCODING 240
SWIDTH 875 0
DWIDTH 21 0
BBX 21 18 2 0
BITMAP
001f00
001f00
001e00
0ffff8
0ffff8
03fe00
07fe00
1ffc00
3e3c00
3c3c00
7c7c00
78fc00
f8f800
f97800
fb7800
fef800
fcf800
78f000
ENDCHAR
STARTCHAR nacute
ENCODING 241
SWIDTH 675 0
DWIDTH 16 0
BBX 15 17 2 0
BITMAP
003c
0070
01c0
0000
1e1c
3e7e
3efe
3dfe
3dbe
3f3c
7e3c
7c7c
7c7c
787c
7878
f878
f8f8
ENDCHAR
STARTCHAR ncaron
ENCODING 242
SWIDTH 675 0
DWIDTH 16 0
BBX 15 17 2 0
BITMAP
071c
03f0
01e0
0000
1e1c
3e7e
3efe
3dfe
3dbe
3f3c
7e3c
7c7c
7c7c
787c
7878
f878
f8f8
ENDCHAR
STARTCHAR oacute
ENCODING 243
SWIDTH 663 0
DWIDTH 16 0
BBX 15 17 2 0
BITMAP
003c
0070
01c0
0000
03f0
0ffc
1ffc
3e7e
7c3e
783e
f83c
f83c
f878
f8f8
fff0
7fe0
1f00
ENDCHAR
STARTCHAR ocircumflex
ENCODING 244
SWIDTH 663 0
DWIDTH 16 0
BBX 15 17 2 0
BITMAP
00f0
01f8
071c
0000
03f0
0ffc
1ffc
3e7e
7c3e
783e
f83c
f83c
f878
f8f8
fff0
7fe0
1f00
ENDCHAR
STARTCHAR odoubleacute
ENCODING 245
SWIDTH 663 0
DWIDTH 16 0
BBX 15 17 2 0
BITMAP
00ee
0198
0770
0000
03f0
0ffc
1ffc
3e7e
7c3e
783e
f83c
f83c
f878
f8f8
fff0
7fe0
1f00
ENDCHAR
STARTCHAR odiaeresis
ENCODING 246
SWIDTH 663 0
DWIDTH 16 0
BBX 15 17 2 0
BITMAP
039c
039c
039c
0000
03f0
0ffc
1ffc
3e7e
7c3e
783e
f83c
f83c
f878
f8f8
fff0
7fe0
1f00
ENDCHAR
STARTCHAR division
ENCODING 247
SWIDTH 687 0
DWIDTH 16 0
BBX 14 14 3 0
BITMAP
01c0
03c0
0380
0000
0000
fffc
fffc
fffc
0000
0000
0000
0700
0f00
0e00
ENDCHAR
STARTCHAR rcaron
ENCODING 248
SWIDTH 542 0
DWIDTH 13 0
BBX 13 17 2 0
BITMAP
0e38
07e0
03c0
0000
3e38
3e70
3ef0
3df0
3d80
7f00
7e00
7c00
7c00
7800
f800
f800
f800
ENDCHAR
STARTCHAR uring
ENCODING 249
SWIDTH 675 0
DWIDTH 16 0
BBX 15 18 2 0
BITMAP
00c0
0120
0120
00c0
0000
3e3e
3c3e
3c3c
7c3c
7c7c
7c7c
78fc
79f8
fb78
fe78
fef8
fcf8
70f0
ENDCHAR
STARTCHAR uacute
ENCODING 250
SWIDTH 675 0
DWIDTH 16 0
BBX 15 17 2 0
BITMAP
003c
0070
01c0
0000
3e3e
3c3e
3c3c
7c3c
7c7c
7c7c
78fc
79f8
fb78
fe78
fef8
fcf8
70f0
ENDCHAR
STARTCHAR udoubleacute
ENCODING 251
SWIDTH 675 0
DWIDTH 16 0
BBX 15 17 2 0
BITMAP
00ee
0198
0770
0000
3e3e
3c3e
3c3c
7c3c
7c7c
7c7c
78fc
79f8
fb78
fe78
fef8
fcf8
70f0
ENDCHAR
STARTCHAR udiaeresis
ENCODING 252
SWIDTH 675 0
DWIDTH 16 0
BBX 15 17 2 0
BITMAP
039c
039c
039c
0000
3e3e
3c3e
3c3c
7c3c
7c7c
7c7c
78fc
79f8
fb78
fe78
fef8
fcf8
70f0
ENDCHAR
STARTCHAR yacute
ENCODING 253
SWIDTH 633 0
DWIDTH 15 0
BBX 17 22 1 -5
BITMAP
001e00
003800
00e000
000000
3e0780
3e0700
3e0e00
1e1e00
1f1c00
1f3800
1f7800
1f7000
0fe000
0fe000
0fc000
0f8000
0f8000
0f0000
1e0000
3e0000
7c0000
f80000
ENDCHAR
STARTCHAR tcedilla
ENCODING 254
SWIDTH 437 0
DWIDTH 10 0
BBX 9 21 3 -5
BITMAP
0e00
3e00
3e00
ff80
ff80
ff80
7c00
7c00
7c00
7800
7800
f800
f800
ff00
fe00
7e00
0e00
1c00
0e00
0600
3c00
ENDCHAR
STARTCHAR abovedot
ENCODING 255
SWIDTH 663 0
DWIDTH 16 0
BBX 4 3 10 15
BITMAP
70
f0
e0
ENDCHAR
ENDFONT
